PathFileType	4	(X/Y/Z)	D:\Vicon data\Senior Design EMG regression\Subject 2- Oliver\Session 3\oliver- static trial.trc
DataRate	CameraRate	NumFrames	NumMarkers	Units	OrigDataRate	OrigDataStartFrame	OrigNumFrames
100.0	100.0	4	60	mm	100.0	1	565	
Frame#	Time	HEAD			C7			CLAV			STUR			LSHO			LHAR2			LHME			LRAH			LRAD			LULN			LMCM			RSHO			RHAR2			RHME			RRAH			RRAD			RULN			RMCM			LASI			RASI			LPSI			RPSI			LLAT			LLFC			LKNE			LLAN			LHEE			LTOE			RLAT			RLFC			RKNE			RLAN			RHEE			RTOE			RSMT			RMAN			LSMT			LMAN			RSAT1			RSAT			RMFC			LSAT1			LSAT			LMFC			BARB			RHAR1			RHGT			RHHB			RHHF			RHLE			RMCR			RMCA			RMCI			LHHF			LHHB			LHGT			LHAR1			LHLE			LMCR			LMCI			
		X1	Y1	Z1	X2	Y2	Z2	X3	Y3	Z3	X4	Y4	Z4	X5	Y5	Z5	X6	Y6	Z6	X7	Y7	Z7	X8	Y8	Z8	X9	Y9	Z9	X10	Y10	Z10	X11	Y11	Z11	X12	Y12	Z12	X13	Y13	Z13	X14	Y14	Z14	X15	Y15	Z15	X16	Y16	Z16	X17	Y17	Z17	X18	Y18	Z18	X19	Y19	Z19	X20	Y20	Z20	X21	Y21	Z21	X22	Y22	Z22	X23	Y23	Z23	X24	Y24	Z24	X25	Y25	Z25	X26	Y26	Z26	X27	Y27	Z27	X28	Y28	Z28	X29	Y29	Z29	X30	Y30	Z30	X31	Y31	Z31	X32	Y32	Z32	X33	Y33	Z33	X34	Y34	Z34	X35	Y35	Z35	X36	Y36	Z36	X37	Y37	Z37	X38	Y38	Z38	X39	Y39	Z39	X40	Y40	Z40	X41	Y41	Z41	X42	Y42	Z42	X43	Y43	Z43	X44	Y44	Z44	X45	Y45	Z45	X46	Y46	Z46	X47	Y47	Z47	X48	Y48	Z48	X49	Y49	Z49	X50	Y50	Z50	X51	Y51	Z51	X52	Y52	Z52	X53	Y53	Z53	X54	Y54	Z54	X55	Y55	Z55	X56	Y56	Z56	X57	Y57	Z57	X58	Y58	Z58	X59	Y59	Z59	X60	Y60	Z60	
1	0	0.46027604	1658.8962	-419.89478	-0.55818099	1487.002	-201.79185	4.9292831	1420.4808	-337.96497	5.6287804	1218.2881	-390.07721	-154.82631	1479.4386	-267.23178	-320.99219	1432.8746	-321.26309	-408.36234	1307.3398	-355.41098	-376.16251	1385.9276	-397.38892	-365.37991	1364.8867	-583.94867	-441.47092	1359.3743	-587.62085	-386.43491	1373.6713	-671.86267	160.57387	1464.9045	-238.85901	310.42703	1419.3726	-289.6893	420.88641	1391.5452	-298.0853	401.40549	1385.3484	-341.30493	416.58832	1347.8101	-539.38507	487.41556	1368.6938	-531.50769	457.37778	1354.6473	-631.10669	-82.686386	924.24646	-399.58948	133.79045	942.1629	-389.53284	-19.19713	991.17737	-170.61856	58.558521	991.12054	-167.57222	-131.21028	581.40784	-329.71198	-117.77896	489.57013	-311.29999	-72.915894	434.92844	-338.92618	-125.83029	93.595184	-225.77174	-82.966019	73.694099	-163.06337	-90.410698	48.629093	-427.22977	213.51678	725.76086	-296.02704	138.60049	483.64374	-310.03864	98.087128	445.23029	-327.62912	149.51416	89.110161	-220.4541	104.41938	71.960983	-165.49841	113.62647	53.87339	-422.72842	166.62029	53.700378	-360.49985	66.775253	98.91626	-239.72058	-148.56328	54.52483	-346.11401	-39.034168	95.20253	-241.5975	154.97957	814.0144	-391.98984	120.68206	604.85645	-374.29263	42.042709	469.73624	-289.86731	-76.066132	790.16705	-422.09268	-85.692741	636.92346	-394.55661	-14.960618	471.86108	-310.22504	52.962475	1235.975	-149.94478	376.15796	1384.9817	-244.87061	268.45871	1437.4888	-232.79485	180.05968	1378.9702	-173.53603	172.15349	1427.5288	-323.40515				480.77399	1352.2307	-620.9693	495.27222	1356.1263	-589.50061	433.62057	1355.2853	-631.12177	-154.36293	1426.9541	-349.81027	-195.75758	1417.3208	-223.03859	-259.41443	1466.917	-290.87024	-378.3891	1402.3329	-282.53442	-418.52173	1410.5259	-340.68069	-412.05472	1368.3894	-671.99854	-357.09085	1369.7126	-670.80786
2	0.01	0.43212336	1658.9225	-419.86133	-0.59430426	1487.0229	-201.73277	4.9226365	1420.5103	-337.89703	5.5853977	1218.2927	-389.97086	-154.85782	1479.4536	-267.17245	-321.0289	1432.9049	-321.17957	-408.40158	1307.3319	-355.31219	-376.02612	1386.2842	-397.61182	-365.46045	1364.9236	-583.90411	-441.59192	1359.384	-587.50214	-386.59772	1373.9261	-671.34119	160.58321	1464.9366	-238.83255	310.40924	1419.3726	-289.63919	420.7803	1391.6296	-297.93481	401.42245	1385.2908	-341.25394	416.60745	1347.8079	-539.29913	487.46863	1368.645	-531.45966	457.44687	1354.7552	-630.95563	-82.69458	924.2536	-399.49844	133.76949	942.18469	-389.39493	-19.234194	991.20605	-170.49966	58.511227	991.12323	-167.46614	-131.17598	581.40466	-329.64365	-117.79243	489.56021	-311.2337	-72.902962	434.94815	-338.90009	-125.89172	93.564804	-225.72659	-82.999107	73.670547	-163.08298	-90.425797	48.623375	-427.23911	213.48866	725.7793	-295.95593	138.60353	483.6543	-310.01462	98.086365	445.23062	-327.57089	149.50389	89.129173	-220.45213	104.37268	71.962296	-165.48657	113.61181	53.869911	-422.75555	166.60751	53.696163	-360.50421	66.779938	98.923134	-239.73619	-148.55463	54.501953	-346.10852	-39.04948	95.204094	-241.62186	154.99507	814.03198	-391.89365	120.70252	604.91205	-374.24106	42.034725	469.75009	-289.78955	-76.050346	790.19037	-422.01859	-85.708984	636.95117	-394.48807	-14.945659	471.83408	-310.17657	52.943775	1236.0038	-149.88689	376.11154	1384.9117	-244.82909	268.44724	1437.4865	-232.75958	180.0359	1379.0031	-173.49721	172.15584	1427.5881	-323.41763				480.78229	1352.2065	-620.91412	495.21786	1356.051	-589.39056	433.68463	1355.3247	-631.06036	-154.39119	1426.9823	-349.80417	-195.79611	1417.321	-222.98218	-259.44757	1466.9346	-290.81738	-378.42725	1402.3575	-282.45911	-418.59012	1410.5634	-340.60181	-412.19424	1368.4432	-671.75665	-357.18896	1369.7195	-670.72516
3	0.02	0.35662496	1658.9617	-419.77484	-0.59763241	1487.0438	-201.67012	4.8944063	1420.5521	-337.80655	5.5450368	1218.2885	-389.85324	-154.87001	1479.4998	-267.07822	-321.06494	1432.937	-321.12262	-408.43661	1307.3268	-355.24081	-376.09027	1386.2865	-397.51529	-365.51401	1364.9564	-583.86127	-441.64075	1359.4159	-587.4516	-386.73224	1373.7668	-671.93463	160.59015	1464.9661	-238.8071	310.43552	1419.3619	-289.60272	420.94785	1391.4598	-298.04822	401.46036	1385.2219	-341.19739	416.61566	1347.7875	-539.24841	487.25089	1368.4446	-531.33441	457.47427	1354.7684	-631.08044	-82.682983	924.28632	-399.38144	133.78638	942.19916	-389.25943	-19.240366	991.23438	-170.39282	58.526978	991.13092	-167.35909	-131.19208	581.43317	-329.56607	-117.80565	489.59103	-311.18243	-72.89502	434.97748	-338.88373	-125.85004	93.599548	-225.72238	-82.996399	73.708832	-163.04688	-90.415253	48.651646	-427.21872	213.48189	725.78394	-295.85196	138.61388	483.68536	-309.9592	98.062439	445.22696	-327.51447	149.50748	89.149948	-220.44164	104.41563	71.969917	-165.49893	113.61514	53.904007	-422.71359	166.60759	53.714043	-360.487	66.787468	98.948891	-239.67142	-148.55692	54.520214	-346.10242	-39.037811	95.207336	-241.60619	155.00735	814.08337	-391.77905	120.71803	604.9176	-374.15881	42.068272	469.7688	-289.76782	-76.054436	790.22662	-422.10159	-85.701744	636.96075	-394.40063	-14.915883	471.87689	-310.13989	53.002792	1236.0444	-149.8262	376.12415	1384.8655	-244.75751	268.46921	1437.4746	-232.71532	180.08009	1379.0537	-173.48735	172.16725	1427.6345	-323.35608				480.81351	1352.2007	-620.87714	495.24847	1355.9923	-589.33893	433.70877	1355.3513	-630.98761	-154.43713	1427.0621	-349.72696	-195.78729	1417.3307	-222.95488	-259.47171	1466.9734	-290.72812	-378.46045	1402.3674	-282.4025	-418.62094	1410.5956	-340.51965	-412.25372	1368.3955	-671.87891	-357.28857	1369.7371	-670.6626
4	0.03	0.3171587	1658.9358	-419.71643	-0.5591802	1487.0608	-201.60355	4.8899221	1420.5441	-337.7341	5.4950314	1218.2982	-389.74713	-154.85056	1479.5009	-267.05643	-320.82407	1432.9581	-321.1879	-408.47562	1307.3746	-355.14423	-376.09662	1386.2844	-397.45438	-365.59869	1364.9391	-583.79492	-441.74106	1359.4402	-587.35254	-386.70532	1373.6909	-671.59717	160.61832	1464.972	-238.8091	310.49854	1419.3276	-289.57019	420.82352	1391.4744	-297.8392	401.50632	1385.1471	-341.15894	416.6582	1347.7369	-539.19855	487.58435	1368.512	-531.32678	457.56766	1354.8275	-631.02454	-82.688141	924.28937	-399.29636	133.75954	942.20026	-389.09732	-19.198271	991.24133	-170.28754	58.545521	991.11658	-167.26292	-131.16559	581.4184	-329.50107	-117.77359	489.57855	-311.16623	-72.934944	434.95963	-338.83603	-125.83102	93.566559	-225.70665	-82.96946	73.672134	-163.0681	-90.394714	48.63649	-427.21494	213.46344	725.8186	-295.63773	138.62607	483.66544	-309.91266	98.089973	445.24564	-327.50015	149.54675	89.128487	-220.45125	104.41972	71.955116	-165.48853	113.63749	53.889046	-422.73349	166.62994	53.694401	-360.49014	66.795296	98.919388	-239.68173	-148.54884	54.516155	-346.09592	-38.991844	95.233299	-241.59883	155.01469	814.09705	-391.65677	120.72331	604.91077	-374.0528	42.068012	469.7666	-289.7363	-76.078682	790.21393	-421.88641	-85.716301	636.96985	-394.35675	-14.954205	471.87064	-310.08823	53.09045	1236.0587	-149.75305	376.1554	1384.7742	-244.69887	268.51205	1437.4652	-232.68515	180.09933	1379.0896	-173.46931	172.21779	1427.6652	-323.36987				480.80011	1352.0729	-620.78296	495.42258	1355.9419	-589.32306	433.78665	1355.3223	-630.87982	-154.42569	1427.1049	-349.71985	-195.76987	1417.3103	-222.92844	-259.47595	1466.9941	-290.69394	-378.46625	1402.3685	-282.31335	-418.6308	1410.6041	-340.4787	-412.25107	1368.5767	-672.28558	-357.39371	1369.7158	-670.58685
